<svg width="32" height="32" viewBox="0 0 32 32" fill="none" xmlns="http://www.w3.org/2000/svg">
  <!-- Background circle -->
  <circle cx="16" cy="16" r="16" fill="#8B5CF6"/>
  
  <!-- Wallet icon -->
  <path d="M8 12C8 10.8954 8.89543 10 10 10H22C23.1046 10 24 10.8954 24 12V20C24 21.1046 23.1046 22 22 22H10C8.89543 22 8 21.1046 8 20V12Z" fill="white"/>
  
  <!-- Wallet fold -->
  <path d="M24 14H26C27.1046 14 28 14.8954 28 16V16C28 17.1046 27.1046 18 26 18H24V14Z" fill="white"/>
  
  <!-- Trending line -->
  <path d="M6 20L10 16L14 18L18 12L22 14L26 10" stroke="white" stroke-width="2" stroke-linecap="round" stroke-linejoin="round"/>
  
  <!-- Dollar sign -->
  <text x="16" y="19" text-anchor="middle" fill="#8B5CF6" font-family="Arial, sans-serif" font-size="8" font-weight="bold">₹</text>
</svg>
